<svg width="13" height="12" viewBox="0 0 13 12" fill="none" xmlns="http://www.w3.org/2000/svg">
<path d="M10.3466 4.35469C10.318 4.28644 10.2697 4.22821 10.208 4.18733C10.1462 4.14646 10.0738 4.12477 9.99977 4.125H2.49977C2.42573 4.12477 2.35329 4.14646 2.29156 4.18733C2.22983 4.22821 2.18158 4.28644 2.15289 4.35469C2.12588 4.42396 2.11902 4.49946 2.13312 4.57246C2.14723 4.64545 2.18171 4.71297 2.23258 4.76719L5.98258 8.51719C6.05426 8.5865 6.15006 8.62524 6.24977 8.62524C6.34947 8.62524 6.44528 8.5865 6.51696 8.51719L10.267 4.76719C10.3178 4.71297 10.3523 4.64545 10.3664 4.57246C10.3805 4.49946 10.3737 4.42396 10.3466 4.35469Z" fill="white"/>
</svg>
