<svg width="23" height="22" viewBox="0 0 23 22" fill="none" xmlns="http://www.w3.org/2000/svg">
<path d="M5.3302 8.93747C5.32905 8.12242 5.48917 7.3152 5.80133 6.5623C6.11349 5.8094 6.57152 5.12569 7.14904 4.55056C7.72657 3.97544 8.41217 3.52025 9.16636 3.21122C9.92056 2.9022 10.7284 2.74544 11.5435 2.74997C14.9466 2.77575 17.6708 5.6031 17.6708 9.01482V9.62497C17.6708 12.7015 18.3154 14.489 18.8825 15.4687C18.9428 15.5731 18.9745 15.6914 18.9746 15.8119C18.9748 15.9323 18.9432 16.0507 18.8831 16.1552C18.8231 16.2596 18.7366 16.3464 18.6325 16.407C18.5283 16.4675 18.41 16.4995 18.2896 16.5H4.71145C4.59097 16.4995 4.47272 16.4675 4.36854 16.407C4.26437 16.3464 4.17792 16.2596 4.11787 16.1552C4.05782 16.0507 4.02626 15.9323 4.02637 15.8119C4.02647 15.6914 4.05824 15.5731 4.11848 15.4687C4.68566 14.489 5.3302 12.7015 5.3302 9.62497V8.93747Z" stroke="white" stroke-linecap="round" stroke-linejoin="round"/>
<path d="M8.75049 16.5V17.1875C8.75049 17.9168 9.04022 18.6163 9.55594 19.132C10.0717 19.6478 10.7711 19.9375 11.5005 19.9375C12.2298 19.9375 12.9293 19.6478 13.445 19.132C13.9608 18.6163 14.2505 17.9168 14.2505 17.1875V16.5" stroke="white" stroke-linecap="round" stroke-linejoin="round"/>
</svg>
