<svg width="17" height="16" viewBox="0 0 17 16" fill="none" xmlns="http://www.w3.org/2000/svg">
<path d="M11.5127 6.2312H14.5127V3.2312" stroke="white" stroke-linecap="round" stroke-linejoin="round"/>
<path d="M4.6123 4.11253C5.12255 3.60154 5.72853 3.19615 6.39559 2.91956C7.06264 2.64298 7.77768 2.50061 8.4998 2.50061C9.22193 2.50061 9.93697 2.64298 10.604 2.91956C11.2711 3.19615 11.8771 3.60154 12.3873 4.11253L14.5123 6.23128" stroke="white" stroke-linecap="round" stroke-linejoin="round"/>
<path d="M5.4873 9.7688H2.4873V12.7688" stroke="white" stroke-linecap="round" stroke-linejoin="round"/>
<path d="M12.3873 11.8875C11.8771 12.3985 11.2711 12.8039 10.604 13.0805C9.93697 13.3571 9.22193 13.4995 8.4998 13.4995C7.77768 13.4995 7.06264 13.3571 6.39559 13.0805C5.72853 12.8039 5.12255 12.3985 4.6123 11.8875L2.4873 9.7688" stroke="white" stroke-linecap="round" stroke-linejoin="round"/>
</svg>
