<svg width="115" height="24" viewBox="0 0 115 24" fill="none" xmlns="http://www.w3.org/2000/svg">
<path d="M12 16.5V7.5" stroke="white" stroke-linecap="round" stroke-linejoin="round"/>
<path d="M8.25 13.5C8.99168 13.5 9.7167 13.7199 10.3334 14.132C10.9501 14.544 11.4307 15.1297 11.7145 15.8149C11.9984 16.5002 12.0726 17.2542 11.9279 17.9816C11.7833 18.709 11.4261 19.3772 10.9017 19.9017C10.3772 20.4261 9.70902 20.7833 8.98159 20.9279C8.25416 21.0726 7.50016 20.9984 6.81494 20.7145C6.12971 20.4307 5.54404 19.9501 5.13199 19.3334C4.71993 18.7167 4.5 17.9917 4.5 17.25V16.6219" stroke="white" stroke-linecap="round" stroke-linejoin="round"/>
<path d="M15.75 13.5C15.0083 13.5 14.2833 13.7199 13.6666 14.132C13.0499 14.544 12.5693 15.1297 12.2855 15.8149C12.0016 16.5002 11.9274 17.2542 12.0721 17.9816C12.2168 18.709 12.5739 19.3772 13.0984 19.9017C13.6228 20.4261 14.291 20.7833 15.0184 20.9279C15.7458 21.0726 16.4998 20.9984 17.1851 20.7145C17.8703 20.4307 18.456 19.9501 18.868 19.3334C19.2801 18.7167 19.5 17.9917 19.5 17.25V16.6219" stroke="white" stroke-linecap="round" stroke-linejoin="round"/>
<path d="M6.75037 16.875H6.00037C4.9367 16.8779 3.90641 16.5038 3.09228 15.8193C2.27815 15.1348 1.73282 14.184 1.55304 13.1356C1.37325 12.0873 1.57064 11.0091 2.11018 10.0924C2.64972 9.17575 3.49653 8.47983 4.50037 8.12812V6.75C4.50037 5.75544 4.89546 4.80161 5.59872 4.09835C6.30198 3.39509 7.25581 3 8.25037 3C9.24493 3 10.1988 3.39509 10.902 4.09835C11.6053 4.80161 12.0004 5.75544 12.0004 6.75V17.25" stroke="white" stroke-linecap="round" stroke-linejoin="round"/>
<path d="M17.25 16.875H18C19.0637 16.8779 20.094 16.5038 20.9081 15.8193C21.7222 15.1348 22.2675 14.184 22.4473 13.1356C22.6271 12.0873 22.4297 11.0091 21.8902 10.0924C21.3506 9.17575 20.5038 8.47983 19.5 8.12812V6.75C19.5 5.75544 19.1049 4.80161 18.4016 4.09835C17.6984 3.39509 16.7446 3 15.75 3C14.7554 3 13.8016 3.39509 13.0983 4.09835C12.3951 4.80161 12 5.75544 12 6.75" stroke="white" stroke-linecap="round" stroke-linejoin="round"/>
<path d="M8.25 7.875V8.625C8.25 9.32119 7.97344 9.98887 7.48116 10.4812C6.98887 10.9734 6.32119 11.25 5.625 11.25" stroke="white" stroke-linecap="round" stroke-linejoin="round"/>
<path d="M15.75 7.875V8.625C15.75 9.32119 16.0266 9.98887 16.5188 10.4812C17.0111 10.9734 17.6788 11.25 18.375 11.25" stroke="white" stroke-linecap="round" stroke-linejoin="round"/>
<path d="M38.72 14.88C38.72 15.1893 38.608 15.456 38.384 15.68C38.1707 15.8933 37.9093 16 37.6 16H33.12V14.88H37.44V12.64H34.24C33.9307 12.64 33.664 12.5333 33.44 12.32C33.2267 12.096 33.12 11.8293 33.12 11.52V9.28C33.12 8.97067 33.2267 8.70933 33.44 8.496C33.664 8.272 33.9307 8.16 34.24 8.16H38.72V9.28H34.4V11.52H37.6C37.9093 11.52 38.1707 11.632 38.384 11.856C38.608 12.0693 38.72 12.3307 38.72 12.64V14.88ZM50.4038 16H49.2838V11.36H46.2438V16H45.1238V11.36H42.0838V16H40.9638V10.4H42.0838V11.2L42.8838 10.4H45.1238C45.7744 10.4 46.1424 10.672 46.2278 11.216L47.0438 10.4H49.2838C49.5931 10.4 49.8544 10.512 50.0678 10.736C50.2918 10.9493 50.4038 11.2107 50.4038 11.52V16ZM58.0113 16H56.8913V15.184L55.9313 16H53.5312C53.2219 16 52.9553 15.8933 52.7313 15.68C52.5179 15.456 52.4113 15.1893 52.4113 14.88V13.76C52.4113 13.4507 52.5179 13.1893 52.7313 12.976C52.9553 12.752 53.2219 12.64 53.5312 12.64H56.7313L55.7713 13.584H53.5312V15.04H56.8913V11.36H52.4113L53.3713 10.4H56.8913C57.2006 10.4 57.4619 10.512 57.6753 10.736C57.8993 10.9493 58.0113 11.2107 58.0113 11.52V16ZM64.725 12.64H63.605V11.36H61.365V16H60.245V10.4H61.365V11.2L62.165 10.4H63.605C63.9143 10.4 64.1757 10.512 64.389 10.736C64.613 10.9493 64.725 11.2107 64.725 11.52V12.64ZM70.1594 16H67.9194C67.61 16 67.3434 15.8933 67.1194 15.68C66.906 15.456 66.7994 15.1893 66.7994 14.88V11.36H65.1994L66.1594 10.4H66.7994V9.28L67.9194 8.16V10.4H70.1594V11.36H67.9194V15.04H70.1594V16ZM80.5638 16H79.4438V15.2L78.6438 16H76.0838C75.7744 16 75.5078 15.8933 75.2838 15.68C75.0704 15.456 74.9638 15.1893 74.9638 14.88V11.52C74.9638 11.2107 75.0704 10.9493 75.2838 10.736C75.5078 10.512 75.7744 10.4 76.0838 10.4H79.4438V7.84L80.5638 6.72V16ZM79.4438 15.04V10.56L78.6438 11.36H76.0838V15.04H79.4438ZM88.5638 16H84.0838C83.7744 16 83.5078 15.8933 83.2838 15.68C83.0704 15.456 82.9638 15.1893 82.9638 14.88V11.52C82.9638 11.2107 83.0704 10.9493 83.2838 10.736C83.5078 10.512 83.7744 10.4 84.0838 10.4H87.4438C87.7531 10.4 88.0144 10.512 88.2278 10.736C88.4518 10.9493 88.5638 11.2107 88.5638 11.52V12.64L87.4438 13.76H84.2438L85.2038 12.8H87.4438V11.36H84.0838V15.04H88.5638V16ZM94.8831 10.4L93.9071 11.36H91.2031V12.64H93.4431C93.7525 12.64 94.0138 12.752 94.2271 12.976C94.4511 13.1893 94.5631 13.4507 94.5631 13.76V14.88C94.5631 15.1893 94.4511 15.456 94.2271 15.68C94.0138 15.8933 93.7525 16 93.4431 16H90.0831V15.04H93.4431V13.6H91.2031C90.8938 13.6 90.6271 13.4933 90.4031 13.28C90.1898 13.056 90.0831 12.7893 90.0831 12.48V11.52C90.0831 11.2107 90.1898 10.9493 90.4031 10.736C90.6271 10.512 90.8938 10.4 91.2031 10.4H94.8831ZM97.6775 9.44H96.5575V8.16H97.6775V9.44ZM97.6775 16H96.5575V11.2L97.6775 10.08V16ZM106.157 10.4L105.197 11.36H101.197V15.04H104.557V11.84H105.677V18.24C105.677 18.5493 105.565 18.8107 105.341 19.024C105.128 19.248 104.866 19.36 104.557 19.36H99.9169L100.877 18.4H104.557V15.184L103.597 16H101.197C100.888 16 100.621 15.8933 100.397 15.68C100.184 15.456 100.077 15.1893 100.077 14.88V11.52C100.077 11.2107 100.184 10.9493 100.397 10.736C100.621 10.512 100.888 10.4 101.197 10.4H106.157ZM113.595 16H112.475V11.36H109.115V16H107.995V10.4H109.115V11.2L109.915 10.4H112.475C112.784 10.4 113.046 10.512 113.259 10.736C113.483 10.9493 113.595 11.2107 113.595 11.52V16Z" fill="white"/>
</svg>
