<svg width="24" height="24" viewBox="0 0 24 24" fill="none" xmlns="http://www.w3.org/2000/svg">
<path d="M9 14.25C9.41421 14.25 9.75 13.9142 9.75 13.5C9.75 13.0858 9.41421 12.75 9 12.75C8.58579 12.75 8.25 13.0858 8.25 13.5C8.25 13.9142 8.58579 14.25 9 14.25Z" fill="white"/>
<path d="M15 14.25C15.4142 14.25 15.75 13.9142 15.75 13.5C15.75 13.0858 15.4142 12.75 15 12.75C14.5858 12.75 14.25 13.0858 14.25 13.5C14.25 13.9142 14.5858 14.25 15 14.25Z" fill="white"/>
<path d="M6.97461 7.49996C8.60047 6.9904 10.2958 6.73736 11.9996 6.74996C13.7034 6.73736 15.3988 6.9904 17.0246 7.49996" stroke="white" stroke-linecap="round" stroke-linejoin="round"/>
<path d="M17.0246 16.5C15.3988 17.0096 13.7034 17.2626 11.9996 17.25C10.2958 17.2626 8.60047 17.0096 6.97461 16.5" stroke="white" stroke-linecap="round" stroke-linejoin="round"/>
<path d="M14.5316 17.0718L15.666 19.3218C15.739 19.4752 15.8631 19.5984 16.0171 19.6703C16.1711 19.7422 16.3453 19.7581 16.5098 19.7155C18.8066 19.153 20.7941 18.178 22.2379 16.9218C22.3467 16.8258 22.4258 16.7005 22.4657 16.561C22.5055 16.4214 22.5046 16.2733 22.4629 16.1343L19.2848 5.52178C19.2538 5.41318 19.1979 5.31334 19.1213 5.2303C19.0448 5.14726 18.9499 5.08333 18.8441 5.04366C17.9462 4.67529 17.0177 4.38667 16.0691 4.18116C15.8869 4.14124 15.6963 4.16983 15.5337 4.26147C15.3712 4.35312 15.2481 4.50141 15.1879 4.67803L14.4473 6.91866" stroke="white" stroke-linecap="round" stroke-linejoin="round"/>
<path d="M9.46909 17.0718L8.33472 19.3218C8.26173 19.4752 8.13758 19.5984 7.98361 19.6703C7.82964 19.7422 7.65545 19.7581 7.49097 19.7155C5.19409 19.153 3.20659 18.178 1.76284 16.9218C1.654 16.8258 1.57495 16.7005 1.53508 16.561C1.4952 16.4214 1.49616 16.2733 1.53784 16.1343L4.71597 5.52178C4.7469 5.41318 4.80288 5.31334 4.8794 5.2303C4.95593 5.14726 5.05087 5.08333 5.15659 5.04366C6.05449 4.67529 6.98308 4.38667 7.93159 4.18116C8.11387 4.14124 8.30447 4.16983 8.46701 4.26147C8.62955 4.35312 8.75266 4.50141 8.81284 4.67803L9.55347 6.91866" stroke="white" stroke-linecap="round" stroke-linejoin="round"/>
</svg>
