<svg width="16" height="16" viewBox="0 0 16 16" fill="none" xmlns="http://www.w3.org/2000/svg">
<path fill-rule="evenodd" clip-rule="evenodd" d="M7.99996 11.6363C8.80328 11.6363 9.4545 12.2876 9.4545 13.0909C9.4545 13.8942 8.80328 14.5454 7.99996 14.5454C7.19663 14.5454 6.54541 13.8942 6.54541 13.0909C6.54541 12.2876 7.19663 11.6363 7.99996 11.6363ZM7.99996 6.54544C8.80328 6.54544 9.4545 7.19666 9.4545 7.99998C9.4545 8.80331 8.80328 9.45453 7.99996 9.45453C7.19663 9.45453 6.54541 8.80331 6.54541 7.99998C6.54541 7.19666 7.19663 6.54544 7.99996 6.54544ZM7.99996 1.45453C8.80328 1.45453 9.4545 2.10575 9.4545 2.90907C9.4545 3.7124 8.80328 4.36362 7.99996 4.36362C7.19663 4.36362 6.54541 3.7124 6.54541 2.90907C6.54541 2.10575 7.19663 1.45453 7.99996 1.45453Z" fill="white"/>
</svg>
