<svg width="22" height="22" viewBox="0 0 22 22" fill="none" xmlns="http://www.w3.org/2000/svg">
<path d="M3.90179 15.2109C2.87818 13.4839 2.52013 11.4427 2.89487 9.47038C3.26961 7.49811 4.35136 5.73044 5.93704 4.49922C7.52272 3.26801 9.50328 2.65791 11.5069 2.78348C13.5105 2.90905 15.3994 3.76164 16.819 5.1812C18.2385 6.60075 19.0911 8.48965 19.2167 10.4933C19.3423 12.4969 18.7322 14.4775 17.501 16.0631C16.2697 17.6488 14.5021 18.7306 12.5298 19.1053C10.5575 19.48 8.51629 19.122 6.78929 18.0984V18.0984L3.93617 18.9062C3.81928 18.9404 3.69534 18.9425 3.57734 18.9123C3.45935 18.8821 3.35165 18.8208 3.26553 18.7346C3.17941 18.6485 3.11804 18.5408 3.08786 18.4228C3.05768 18.3048 3.05979 18.1809 3.09398 18.064L3.90179 15.2109Z" stroke="white" stroke-linecap="round" stroke-linejoin="round"/>
<path d="M6.875 12.375L9.625 9.625L12.375 12.375L15.125 9.625" stroke="white" stroke-linecap="round" stroke-linejoin="round"/>
</svg>
