<svg width="12" height="12" viewBox="0 0 12 12" fill="none" xmlns="http://www.w3.org/2000/svg">
<path fill-rule="evenodd" clip-rule="evenodd" d="M8.74665 7.09088C9.80101 7.09088 10.909 7.94561 10.909 8.99997V9.81815C10.909 10.4206 10.4206 10.9091 9.81809 10.9091H2.18173C1.57924 10.9091 1.09082 10.4206 1.09082 9.81815V8.99997C1.09082 7.94561 2.21975 7.09088 3.27411 7.09088H8.74665ZM3.2706 7.90906C2.39085 7.90906 1.95364 8.35409 1.91199 8.91856L1.909 8.99997V9.54543C1.909 9.82516 2.11957 10.0557 2.39085 10.0872L2.45446 10.0909H9.54537C9.8251 10.0909 10.0556 9.88031 10.0872 9.60904L10.0908 9.54543V8.99997C10.0908 8.42487 9.54537 7.90472 8.74112 7.90906C7.93688 7.9134 3.2706 7.90906 3.2706 7.90906ZM5.99991 1.09088C7.50614 1.09088 8.72718 2.31192 8.72718 3.81815C8.72718 5.32439 7.50614 6.54543 5.99991 6.54543C4.49368 6.54543 3.27264 5.32439 3.27264 3.81815C3.27264 2.31192 4.49368 1.09088 5.99991 1.09088ZM5.99991 1.90906C4.94555 1.90906 4.09082 2.76379 4.09082 3.81815C4.09082 4.87252 4.94555 5.72724 5.99991 5.72724C7.05427 5.72724 7.909 4.87252 7.909 3.81815C7.909 2.76379 7.05427 1.90906 5.99991 1.90906Z" fill="white"/>
</svg>
