<svg width="373" height="158" xmlns="http://www.w3.org/2000/svg" fill="none">

 <g>
  <title>Layer 1</title>
  <path id="svg_1" fill="#F4F5F6" d="m93.996,130.66l135.772,0c0.768,0 1.517,-0.083 2.238,-0.24c0.721,0.157 1.47,0.24 2.238,0.24l77.584,0c5.768,0 10.444,-4.67 10.444,-10.43c0,-5.76 -4.676,-10.43 -10.444,-10.43l-8.952,0c-5.768,0 -10.444,-4.67 -10.444,-10.4299c0,-5.7603 4.676,-10.43 10.444,-10.43l28.348,0c5.768,0 10.444,-4.6697 10.444,-10.43c0,-5.7603 -4.676,-10.43 -10.444,-10.43l-32.824,0c5.768,0 10.444,-4.6697 10.444,-10.43c0,-5.7603 -4.676,-10.43 -10.444,-10.43l-95.488,0c5.768,0 10.444,-4.6697 10.444,-10.43c0,-5.7603 -4.676,-10.43 -10.444,-10.43l-85.044,0c-5.768,0 -10.444,4.6697 -10.444,10.43c0,5.7603 4.676,10.43 10.444,10.43l-59.68,0c-5.768,0 -10.444,4.6697 -10.444,10.43c0,5.7603 4.676,10.43 10.444,10.43l37.3,0c5.768,0 10.444,4.6697 10.444,10.43c0,5.7603 -4.676,10.43 -10.444,10.43l-59.68,0c-5.768,0 -10.444,4.6697 -10.444,10.43c0,5.7599 4.676,10.4299 10.444,10.4299l58.188,0c-5.768,0 -10.444,4.67 -10.444,10.43c0,5.76 4.676,10.43 10.444,10.43zm243.196,0c5.768,0 10.444,-4.67 10.444,-10.43c0,-5.76 -4.676,-10.43 -10.444,-10.43c-5.768,0 -10.444,4.67 -10.444,10.43c0,5.76 4.676,10.43 10.444,10.43z" clip-rule="evenodd" fill-rule="evenodd"/>
  <path id="svg_2" fill="#F4F5F6" d="m137.264,139.6c-18.128,0 -32.824,-14.343 -32.824,-32.035c0,-17.6925 14.696,-32.0351 32.824,-32.0351c0.771,0 1.536,0.026 2.293,0.077c-0.526,-2.9261 -0.801,-5.9395 -0.801,-9.017c0,-27.9787 22.712,-50.66 50.728,-50.66c22.367,0 41.352,14.456 48.1,34.5226c1.599,-0.167 3.222,-0.2526 4.866,-0.2526c25.132,0 45.506,20.0129 45.506,44.7c0,23.4531 -18.388,42.8041 -41.776,44.6671l0,0.033l-84.286,0m-6.732,0l-10.391,0l10.391,0z" clip-rule="evenodd" fill-rule="evenodd"/>
  <path id="svg_3" fill="#D5D9E1" d="m137.264,140.85c0.69,0 1.25,-0.56 1.25,-1.25c0,-0.69 -0.56,-1.25 -1.25,-1.25l0,2.5zm2.293,-65.2431l-0.084,1.2472l1.598,0.1076l-0.284,-1.5761l-1.23,0.2213zm98.027,-25.1544l-1.185,0.3984l0.319,0.9488l0.996,-0.104l-0.13,-1.2432zm8.596,89.1145l-0.099,-1.246l-1.151,0.092l0,1.154l1.25,0zm0,0.033l0,1.25l1.25,0l0,-1.25l-1.25,0zm-84.286,-1.25c-0.691,0 -1.25,0.56 -1.25,1.25c0,0.69 0.559,1.25 1.25,1.25l0,-2.5zm-6.732,2.5c0.69,0 1.25,-0.56 1.25,-1.25c0,-0.69 -0.56,-1.25 -1.25,-1.25l0,2.5zm-10.391,-2.5c-0.691,0 -1.25,0.56 -1.25,1.25c0,0.69 0.559,1.25 1.25,1.25l0,-2.5zm-7.507,0c-17.467,0 -31.574,-13.811 -31.574,-30.785l-2.5,0c0,18.411 15.284,33.285 34.074,33.285l0,-2.5zm-31.574,-30.785c0,-16.9737 14.107,-30.7851 31.574,-30.7851l0,-2.5c-18.79,0 -34.074,14.8737 -34.074,33.2851l2.5,0zm31.574,-30.7851c0.743,0 1.479,0.025 2.209,0.0742l0.168,-2.4944c-0.785,-0.0529 -1.578,-0.0798 -2.377,-0.0798l0,2.5zm3.523,-1.3943c-0.513,-2.8535 -0.781,-5.7928 -0.781,-8.7957l-2.5,0c0,3.152 0.281,6.2395 0.821,9.2383l2.46,-0.4426zm-0.781,-8.7957c0,-27.2868 22.15,-49.41 49.478,-49.41l0,-2.5c-28.705,0 -51.978,23.2394 -51.978,51.91l2.5,0zm49.478,-49.41c21.815,0 40.334,14.0987 46.915,33.671l2.37,-0.7968c-6.914,-20.5609 -26.366,-35.3742 -49.285,-35.3742l0,2.5zm48.23,34.5158c1.556,-0.1624 3.136,-0.2458 4.736,-0.2458l0,-2.5c-1.687,0 -3.354,0.0879 -4.996,0.2593l0.26,2.4865zm4.736,-0.2458c24.463,0 44.256,19.4742 44.256,43.45l2.5,0c0,-25.3984 -20.955,-45.95 -46.756,-45.95l0,2.5zm44.256,43.45c0,22.7821 -17.868,41.6081 -40.625,43.4211l0.198,2.492c24.018,-1.913 42.927,-21.788 42.927,-45.9131l-2.5,0zm-41.776,44.6671l0,0.033l2.5,0l0,-0.033l-2.5,0zm1.25,-1.217l-84.286,0l0,2.5l84.286,0l0,-2.5zm-91.018,0l-10.391,0l0,2.5l10.391,0l0,-2.5z"/>
  <path id="svg_4" fill="#F4F5F6" d="m173.986,26.8706c0,48.0125 43.298,87.5754 99.05,92.9164c-6.987,8.58 -17.776,14.401 -30.068,15.315l0,0.028l-100.119,0c-12.148,0 -32.441,-5.111 -32.441,-27.493c0,-22.3817 15.777,-27.4928 32.441,-27.4928c0.708,0 1.411,0.0222 2.108,0.066c-0.484,-2.5112 -0.569,-5.0997 -0.737,-7.7385c-1.132,-17.8252 6.655,-40.2902 29.793,-47.6016c-0.019,0.6665 -0.027,1.3327 -0.027,2.0005z" clip-rule="evenodd" fill-rule="evenodd"/>
  <path id="svg_5" stroke-linecap="round" stroke-width="2.5" stroke="#D5D9E1" d="m204.404,33.8101c9.711,2.5666 17.379,10.1511 20.053,19.8068"/>
  <path id="svg_6" stroke-linecap="round" stroke-width="2.5" stroke="#D5D9E1" d="m161.136,82.2349c0,5.3489 4.676,9.685 10.444,9.685c5.768,0 10.444,-4.3361 10.444,-9.685"/>
  <path id="svg_7" stroke-linecap="round" stroke-width="2.5" stroke="#D5D9E1" d="m204.404,82.2349c0,5.3489 4.676,9.685 10.444,9.685c5.768,0 10.444,-4.3361 10.444,-9.685"/>
  <path id="svg_8" stroke-linecap="round" stroke-width="2.5" stroke="#D5D9E1" d="m182.024,109.8l21.634,0"/>
  <path id="svg_9" fill="#D5D9E1" d="m103.181,20.835l-17.8237,0l0,3.5402l12.6044,0l-13.6548,16.5211l0,3.3436l19.2021,0l0,-3.5403l-13.983,0l13.655,-16.7505l0,-3.1141zm20.01,22.7731l-12.962,0l0,2.5747l9.167,0l-9.931,12.0154l0,2.4317l13.965,0l0,-2.5747l-10.169,0l9.93,-12.1823l0,-2.2648z" clip-rule="evenodd" fill-rule="evenodd"/>
 </g>
</svg>