<svg width="23" height="22" viewBox="0 0 23 22" fill="none" xmlns="http://www.w3.org/2000/svg">
<path d="M7.52441 8.56787H3.39941V4.44287" stroke="white" stroke-linecap="round" stroke-linejoin="round"/>
<path d="M17.0119 5.65462C16.3103 4.95201 15.4771 4.3946 14.5599 4.01429C13.6427 3.63399 12.6595 3.43823 11.6666 3.43823C10.6737 3.43823 9.6905 3.63399 8.7733 4.01429C7.8561 4.3946 7.02288 4.95201 6.32129 5.65462L3.39941 8.5679" stroke="white" stroke-linecap="round" stroke-linejoin="round"/>
<path d="M15.8088 13.4321H19.9338V17.5571" stroke="white" stroke-linecap="round" stroke-linejoin="round"/>
<path d="M6.32129 16.3454C7.02288 17.048 7.8561 17.6054 8.7733 17.9857C9.6905 18.366 10.6737 18.5618 11.6666 18.5618C12.6595 18.5618 13.6427 18.366 14.5599 17.9857C15.4771 17.6054 16.3103 17.048 17.0119 16.3454L19.9338 13.4321" stroke="white" stroke-linecap="round" stroke-linejoin="round"/>
</svg>
