<svg width="22" height="22" viewBox="0 0 22 22" fill="none" xmlns="http://www.w3.org/2000/svg">
<path d="M3.90179 15.2109C2.87818 13.4839 2.52013 11.4427 2.89487 9.47038C3.26961 7.49811 4.35136 5.73044 5.93704 4.49922C7.52272 3.26801 9.50328 2.65791 11.5069 2.78348C13.5105 2.90905 15.3994 3.76164 16.819 5.1812C18.2385 6.60075 19.0911 8.48965 19.2167 10.4933C19.3423 12.4969 18.7322 14.4775 17.501 16.0631C16.2697 17.6488 14.5021 18.7306 12.5298 19.1053C10.5575 19.48 8.51629 19.122 6.78929 18.0984V18.0984L3.93617 18.9062C3.81928 18.9404 3.69534 18.9425 3.57734 18.9123C3.45935 18.8821 3.35165 18.8208 3.26553 18.7346C3.17941 18.6485 3.11804 18.5408 3.08786 18.4228C3.05768 18.3048 3.05979 18.1809 3.09398 18.064L3.90179 15.2109Z" stroke="white" stroke-linecap="round" stroke-linejoin="round"/>
<path d="M13.0711 15.8125C12.1665 15.8148 11.2704 15.6383 10.4342 15.2932C9.59802 14.948 8.83828 14.4411 8.19862 13.8014C7.55897 13.1618 7.05202 12.402 6.70689 11.5658C6.36176 10.7297 6.18525 9.83353 6.18752 8.92893C6.1898 8.29224 6.44431 7.6824 6.89533 7.233C7.34634 6.7836 7.95708 6.53126 8.59377 6.53127V6.53127C8.69882 6.53043 8.80215 6.55792 8.89289 6.61085C8.98363 6.66379 9.05842 6.7402 9.1094 6.83205L10.1149 8.58518C10.1747 8.69175 10.2053 8.81218 10.2038 8.93437C10.2023 9.05656 10.1687 9.17621 10.1063 9.28127L9.29846 10.6305C9.71223 11.551 10.4491 12.2878 11.3696 12.7016L12.7188 11.8938C12.8238 11.8314 12.9435 11.7977 13.0657 11.7962C13.1879 11.7947 13.3083 11.8254 13.4149 11.8852L15.168 12.8906C15.2598 12.9416 15.3363 13.0164 15.3892 13.1072C15.4421 13.1979 15.4696 13.3012 15.4688 13.4063C15.4665 14.0423 15.2135 14.6517 14.7645 15.1022C14.3156 15.5528 13.7071 15.808 13.0711 15.8125V15.8125Z" stroke="white" stroke-linecap="round" stroke-linejoin="round"/>
</svg>
