<svg width="244" height="39" viewBox="0 0 244 39" fill="none" xmlns="http://www.w3.org/2000/svg">
<g clip-path="url(#clip0_588_6509)">
<g filter="url(#filter0_i_588_6509)">
<path d="M0.559081 35.7151V36.6462C0.559081 37.415 1.1827 38.0387 1.95154 38.0387H28.4125C33.7943 38.0387 38.1554 33.6776 38.1554 28.2957V20.4365C38.1554 19.8001 37.5958 19.3131 36.9637 19.3986C25.6703 20.9192 10.1183 25.2674 1.76787 32.9686C0.999028 33.6776 0.55481 34.6686 0.55481 35.7108L0.559081 35.7151Z" fill="#D77FFC"/>
</g>
<g filter="url(#filter1_i_588_6509)">
<path d="M0.559082 10.1853V30.7176C0.559082 31.102 1.01184 31.3028 1.29375 31.0422C2.86133 29.5942 4.73218 28.0822 6.94046 26.5787L9.19572 21.5086L8.14924 21.1882L12.664 18.5998L10.2721 24.49C11.3442 23.8706 12.4804 23.2598 13.6806 22.6618L16.1067 17.2074L14.71 16.7802L20.7198 13.3333L17.6658 20.8551C18.5713 20.4792 19.511 20.1119 20.4806 19.7573L25.1748 9.20288L22.9409 8.51946L32.5642 2.99663L26.5416 17.8352C29.8006 16.9425 33.3672 16.178 37.2627 15.5928C37.7752 15.5159 38.1596 15.076 38.1596 14.5549V1.83482C38.1596 1.06598 37.536 0.442368 36.7672 0.442368H10.302C4.92011 0.442368 0.559082 4.8034 0.559082 10.1853Z" fill="#6E7AE6"/>
</g>
</g>
<g clip-path="url(#clip1_588_6509)">
<path d="M216.165 31.7437H233.523C236.797 31.7437 239.376 29.2179 239.376 26.0506V23.1664H243.441V26.0506C243.441 31.5668 238.929 35.8046 233.523 35.8046H216.165V31.7393V31.7437ZM215.488 12.8682V10.2893C215.488 4.80403 219.965 0.442368 225.406 0.442368H243.304V4.50765H225.406C222.163 4.50765 219.554 7.09545 219.554 10.2937V12.8727H215.488V12.8682Z" fill="#1F2A37"/>
</g>
<g clip-path="url(#clip2_588_6509)">
<path d="M153.686 0.442368V18.3624V31.9118H178.078V35.9771H149.621V18.3624V0.442368H153.686Z" fill="#1F2A37"/>
</g>
<g clip-path="url(#clip3_588_6509)">
<path d="M143.428 0L131.033 17.9377L143.406 35.84H138.465L128.56 21.5119L118.656 35.84H113.715L126.092 17.9377L113.693 0H118.634L128.56 14.3634L138.487 0H143.428Z" fill="#1F2A37"/>
</g>
<path d="M76.2822 35.9948H67.8818C58.0614 35.9948 50.1034 28.0368 50.1034 18.2164C50.1034 8.39599 58.0614 0.442368 67.8818 0.442368H76.2822V4.50765H67.8818C60.3086 4.50765 54.1686 10.6476 54.1686 18.2208C54.1686 25.794 60.3086 31.9339 67.8818 31.9339H76.2822V35.9992V35.9948Z" fill="#1F2A37"/>
<path d="M107.499 4.50765H82.4752V0.442368H107.499V4.50765ZM107.499 20.2778H82.4752V16.2125H107.499V20.2778ZM107.499 35.9948H82.4752V31.9295H107.499V35.9948Z" fill="#1F2A37"/>
<path d="M209.295 4.50765H184.271V0.442368H209.295V4.50765ZM209.295 20.2778H184.271V16.2125H209.295V20.2778ZM209.295 35.9948H184.271V31.9295H209.295V35.9948Z" fill="#1F2A37"/>
<defs>
<filter id="filter0_i_588_6509" x="0.55481" y="19.3888" width="37.6006" height="18.6498" filterUnits="userSpaceOnUse" color-interpolation-filters="sRGB">
<feFlood flood-opacity="0" result="BackgroundImageFix"/>
<feBlend mode="normal" in="SourceGraphic" in2="BackgroundImageFix" result="shape"/>
<feColorMatrix in="SourceAlpha" type="matrix" values="0 0 0 0 0 0 0 0 0 0 0 0 0 0 0 0 0 0 127 0" result="hardAlpha"/>
<feOffset/>
<feGaussianBlur stdDeviation="7.5"/>
<feComposite in2="hardAlpha" operator="arithmetic" k2="-1" k3="1"/>
<feColorMatrix type="matrix" values="0 0 0 0 0 0 0 0 0 0 0 0 0 0 0 0 0 0 0.1 0"/>
<feBlend mode="normal" in2="shape" result="effect1_innerShadow_588_6509"/>
</filter>
<filter id="filter1_i_588_6509" x="0.559082" y="0.442368" width="37.6006" height="30.7174" filterUnits="userSpaceOnUse" color-interpolation-filters="sRGB">
<feFlood flood-opacity="0" result="BackgroundImageFix"/>
<feBlend mode="normal" in="SourceGraphic" in2="BackgroundImageFix" result="shape"/>
<feColorMatrix in="SourceAlpha" type="matrix" values="0 0 0 0 0 0 0 0 0 0 0 0 0 0 0 0 0 0 127 0" result="hardAlpha"/>
<feOffset/>
<feGaussianBlur stdDeviation="7.5"/>
<feComposite in2="hardAlpha" operator="arithmetic" k2="-1" k3="1"/>
<feColorMatrix type="matrix" values="0 0 0 0 0 0 0 0 0 0 0 0 0 0 0 0 0 0 0.1 0"/>
<feBlend mode="normal" in2="shape" result="effect1_innerShadow_588_6509"/>
</filter>
<clipPath id="clip0_588_6509">
<rect width="37.6006" height="37.6006" fill="white" transform="translate(0.559082 0.442368)"/>
</clipPath>
<clipPath id="clip1_588_6509">
<rect width="27.9527" height="35.3666" fill="white" transform="translate(215.488 0.442368)"/>
</clipPath>
<clipPath id="clip2_588_6509">
<rect width="28.457" height="35.5347" fill="white" transform="translate(149.621 0.442368)"/>
</clipPath>
<clipPath id="clip3_588_6509">
<rect width="29.7354" height="35.84" fill="white" transform="translate(113.693)"/>
</clipPath>
</defs>
</svg>
