<svg width="183" height="24" viewBox="0 0 183 24" fill="none" xmlns="http://www.w3.org/2000/svg">
<path d="M8.66445 6.27261C8.98157 4.82287 10.2654 3.78955 11.7494 3.78955H27.3895C29.4055 3.78955 30.9052 5.65287 30.4744 7.62227L27.435 21.517C27.1178 22.9667 25.834 24 24.35 24H8.70992C6.69395 24 5.19417 22.1367 5.62498 20.1673L8.66445 6.27261Z" fill="#362F78"/>
<path d="M3.61366 2.48306C3.93079 1.03332 5.21459 0 6.69861 0H22.3387C24.3547 0 25.8545 1.86332 25.4236 3.83272L22.3842 17.7274C22.0671 19.1772 20.7833 20.2105 19.2992 20.2105H3.65914C1.64317 20.2105 0.14339 18.3472 0.574196 16.3778L3.61366 2.48306Z" fill="#5850EC"/>
<path d="M48.021 13.4318H45.9341V17.5936H48.1302C49.0605 17.5936 49.748 17.4157 50.1929 17.0597C50.6378 16.7038 50.8603 16.1578 50.8603 15.4217C50.8603 14.0951 49.9138 13.4318 48.021 13.4318ZM45.9341 7.19524V10.7382H47.8997C48.8218 10.7382 49.4851 10.5967 49.8896 10.3135C50.3021 10.0304 50.5084 9.5734 50.5084 8.94246C50.5084 8.31152 50.2859 7.86258 49.841 7.59564C49.3961 7.32871 48.6843 7.19524 47.7056 7.19524H45.9341ZM42.5488 20.3843V4.41667H47.5114C49.7682 4.41667 51.4103 4.74023 52.4376 5.38735C53.4649 6.02638 53.9786 7.04964 53.9786 8.45712C53.9786 9.40353 53.7561 10.1841 53.3112 10.7989C52.8663 11.4136 52.2677 11.7857 51.5155 11.9152V12.0244C52.5104 12.2428 53.2344 12.6593 53.6874 13.2741C54.1484 13.8889 54.379 14.7139 54.379 15.7493C54.379 17.2134 53.8491 18.354 52.7895 19.171C51.7379 19.9799 50.3142 20.3843 48.5185 20.3843H42.5488Z" fill="#11151A"/>
<path d="M67.3882 20.3843H65.0586L64.4155 18.722H64.3306C63.7644 19.4339 63.186 19.9273 62.5955 20.2023C62.005 20.4692 61.2325 20.6027 60.278 20.6027C59.097 20.6027 58.1708 20.267 57.4995 19.5956C56.8281 18.9162 56.4924 17.9495 56.4924 16.6957C56.4924 15.442 56.9373 14.5036 57.8271 13.8808C58.7249 13.2579 60.1001 12.9141 61.9524 12.8494L64.0758 12.7888V12.2549C64.0758 11.0173 63.4408 10.3985 62.1709 10.3985C61.2083 10.3985 60.0637 10.6897 58.7371 11.2721L57.6329 9.02739C59.0323 8.29129 60.5733 7.92324 62.2558 7.92324C63.9464 7.92324 65.2244 8.28725 66.09 9.01526C66.9555 9.73518 67.3882 10.8151 67.3882 12.2549V20.3843ZM64.0758 15.7372V14.7301L62.7897 14.7665C61.8109 14.7989 61.0869 14.9768 60.6178 15.3004C60.1486 15.6159 59.914 16.1012 59.914 16.7564C59.914 17.6947 60.4519 18.1639 61.5278 18.1639C62.3043 18.1639 62.9231 17.9455 63.3842 17.5087C63.8453 17.0638 64.0758 16.4733 64.0758 15.7372Z" fill="#11151A"/>
<path d="M82.0773 12.4248V20.3843H78.7406V13.2498C78.7406 12.3601 78.5829 11.7008 78.2674 11.2721C77.9519 10.8353 77.4545 10.6169 76.775 10.6169C75.8529 10.6169 75.1815 10.9283 74.7608 11.5512C74.3402 12.1659 74.1299 13.1973 74.1299 14.6452V20.3843H70.8053V8.17805H73.3534L73.8023 9.74327H73.9843C74.3483 9.16086 74.8539 8.71596 75.501 8.40858C76.1562 8.1012 76.9004 7.94751 77.7335 7.94751C79.1572 7.94751 80.2371 8.33174 80.9732 9.10019C81.7093 9.86056 82.0773 10.9687 82.0773 12.4248Z" fill="#11151A"/>
<path d="M88.8252 20.3843H85.5006V3.39746H88.8252V10.9687L88.6553 13.7473H88.7039L90.1478 11.8909L93.5694 8.17805H97.3308L92.4774 13.4682L97.622 20.3843H93.7757L90.257 15.4339L88.8252 16.5865V20.3843Z" fill="#11151A"/>
<path d="M105.721 13.9172L108.743 4.41667H112.164L106.741 20.3843H103.04L97.6284 4.41667H101.05L104.047 13.9172C104.193 14.4106 104.358 15.0456 104.544 15.8221C104.739 16.5987 104.856 17.1366 104.896 17.4359C104.985 16.7079 105.26 15.535 105.721 13.9172Z" fill="#11151A"/>
<path d="M123.544 20.3843H121.215L120.572 18.722H120.487C119.921 19.4339 119.342 19.9273 118.752 20.2023C118.161 20.4692 117.389 20.6027 116.434 20.6027C115.253 20.6027 114.327 20.267 113.656 19.5956C112.984 18.9162 112.649 17.9495 112.649 16.6957C112.649 15.442 113.094 14.5036 113.983 13.8808C114.881 13.2579 116.256 12.9141 118.109 12.8494L120.232 12.7888V12.2549C120.232 11.0173 119.597 10.3985 118.327 10.3985C117.365 10.3985 116.22 10.6897 114.893 11.2721L113.789 9.02739C115.189 8.29129 116.73 7.92324 118.412 7.92324C120.103 7.92324 121.381 8.28725 122.246 9.01526C123.112 9.73518 123.544 10.8151 123.544 12.2549V20.3843ZM120.232 15.7372V14.7301L118.946 14.7665C117.967 14.7989 117.243 14.9768 116.774 15.3004C116.305 15.6159 116.07 16.1012 116.07 16.7564C116.07 17.6947 116.608 18.1639 117.684 18.1639C118.461 18.1639 119.079 17.9455 119.54 17.5087C120.002 17.0638 120.232 16.4733 120.232 15.7372Z" fill="#11151A"/>
<path d="M132.701 13.4318H130.614V17.5936H132.81C133.74 17.5936 134.428 17.4157 134.873 17.0597C135.317 16.7038 135.54 16.1578 135.54 15.4217C135.54 14.0951 134.594 13.4318 132.701 13.4318ZM130.614 7.19524V10.7382H132.579C133.502 10.7382 134.165 10.5967 134.569 10.3135C134.982 10.0304 135.188 9.5734 135.188 8.94246C135.188 8.31152 134.966 7.86258 134.521 7.59564C134.076 7.32871 133.364 7.19524 132.385 7.19524H130.614ZM127.229 20.3843V4.41667H132.191C134.448 4.41667 136.09 4.74023 137.117 5.38735C138.145 6.02638 138.658 7.04964 138.658 8.45712C138.658 9.40353 138.436 10.1841 137.991 10.7989C137.546 11.4136 136.947 11.7857 136.195 11.9152V12.0244C137.19 12.2428 137.914 12.6593 138.367 13.2741C138.828 13.8889 139.059 14.7139 139.059 15.7493C139.059 17.2134 138.529 18.354 137.469 19.171C136.418 19.9799 134.994 20.3843 133.198 20.3843H127.229Z" fill="#11151A"/>
<path d="M152.068 20.3843H149.738L149.095 18.722H149.01C148.444 19.4339 147.866 19.9273 147.275 20.2023C146.685 20.4692 145.912 20.6027 144.958 20.6027C143.777 20.6027 142.851 20.267 142.179 19.5956C141.508 18.9162 141.172 17.9495 141.172 16.6957C141.172 15.442 141.617 14.5036 142.507 13.8808C143.405 13.2579 144.78 12.9141 146.632 12.8494L148.755 12.7888V12.2549C148.755 11.0173 148.121 10.3985 146.851 10.3985C145.888 10.3985 144.743 10.6897 143.417 11.2721L142.313 9.02739C143.712 8.29129 145.253 7.92324 146.935 7.92324C148.626 7.92324 149.904 8.28725 150.77 9.01526C151.635 9.73518 152.068 10.8151 152.068 12.2549V20.3843ZM148.755 15.7372V14.7301L147.469 14.7665C146.491 14.7989 145.767 14.9768 145.297 15.3004C144.828 15.6159 144.594 16.1012 144.594 16.7564C144.594 17.6947 145.132 18.1639 146.207 18.1639C146.984 18.1639 147.603 17.9455 148.064 17.5087C148.525 17.0638 148.755 16.4733 148.755 15.7372Z" fill="#11151A"/>
<path d="M166.757 12.4248V20.3843H163.42V13.2498C163.42 12.3601 163.263 11.7008 162.947 11.2721C162.632 10.8353 162.134 10.6169 161.455 10.6169C160.533 10.6169 159.861 10.9283 159.441 11.5512C159.02 12.1659 158.81 13.1973 158.81 14.6452V20.3843H155.485V8.17805H158.033L158.482 9.74327H158.664C159.028 9.16086 159.534 8.71596 160.181 8.40858C160.836 8.1012 161.58 7.94751 162.413 7.94751C163.837 7.94751 164.917 8.33174 165.653 9.10019C166.389 9.86056 166.757 10.9687 166.757 12.4248Z" fill="#11151A"/>
<path d="M173.505 20.3843H170.18V3.39746H173.505V10.9687L173.335 13.7473H173.384L174.827 11.8909L178.249 8.17805H182.01L177.157 13.4682L182.302 20.3843H178.455L174.937 15.4339L173.505 16.5865V20.3843Z" fill="#11151A"/>
</svg>
