<svg width="20" height="20" viewBox="0 0 20 20" fill="none" xmlns="http://www.w3.org/2000/svg">
<g clip-path="url(#clip0_580_8453)">
<mask id="mask0_580_8453" style="mask-type:luminance" maskUnits="userSpaceOnUse" x="0" y="0" width="20" height="20">
<path d="M9.99993 19.9519C15.4963 19.9519 19.9518 15.4963 19.9518 9.99999C19.9518 4.50371 15.4963 0.0480957 9.99993 0.0480957C4.50368 0.0480957 0.0480652 4.50371 0.0480652 9.99999C0.0480652 15.4963 4.50368 19.9519 9.99993 19.9519Z" fill="white"/>
</mask>
<g mask="url(#mask0_580_8453)">
<path d="M20.8942 -0.894287H-0.894257V20.8941H20.8942V-0.894287Z" fill="url(#paint0_linear_580_8453)"/>
</g>
<path d="M12.8781 12.1475L15.6937 10.5217C15.8429 10.4356 15.9351 10.2754 15.9351 10.1032V6.85196C15.9351 6.68008 15.8425 6.51957 15.6937 6.43342L12.8781 4.80762C12.729 4.72147 12.5441 4.72188 12.395 4.80762L9.57936 6.43342C9.43023 6.51957 9.33801 6.68008 9.33801 6.85196V12.6623L7.36356 13.8022L5.38911 12.6623V10.3823L7.36356 9.24249L8.66595 9.99423V8.46479L7.60493 7.85239C7.53179 7.81014 7.44808 7.78779 7.36315 7.78779C7.27823 7.78779 7.19452 7.81014 7.12179 7.85239L4.30619 9.4782C4.15706 9.56431 4.06482 9.72447 4.06482 9.89677V13.148C4.06482 13.3198 4.15747 13.4803 4.30619 13.5665L7.12179 15.1923C7.27051 15.278 7.4558 15.278 7.60493 15.1923L10.4205 13.5669C10.5697 13.4807 10.6619 13.3203 10.6619 13.1484V7.33796L10.6977 7.31764L12.6363 6.19815L14.6108 7.33796V9.61796L12.6363 10.7578L11.336 10.0069V11.5364L12.395 12.1479C12.5441 12.2337 12.729 12.2337 12.8781 12.1479V12.1475Z" fill="white"/>
</g>
<defs>
<linearGradient id="paint0_linear_580_8453" x1="-4.87607" y1="0.896491" x2="17.617" y2="14.6612" gradientUnits="userSpaceOnUse">
<stop stop-color="#A229C5"/>
<stop offset="1" stop-color="#7B3FE4"/>
</linearGradient>
<clipPath id="clip0_580_8453">
<rect width="20" height="20" fill="white"/>
</clipPath>
</defs>
</svg>
